<?xml version="1.0" ?><svg viewBox="0 0 64 64" xmlns="http://www.w3.org/2000/svg"><title/><g id="Sun"><circle cx="32" cy="32" r="15" fill="#ffd36b" stroke="white" stroke-width="5" stroke-linecap="round" /><path d="M32,17A15,15,0,1,0,47,32,15.0167,15.0167,0,0,0,32,17Zm0,28A13,13,0,1,1,45,32,13.0147,13.0147,0,0,1,32,45Z" fill="#776d8a" /><path d="M32,13a1,1,0,0,0,1-1V3a1,1,0,0,0-2,0v9A1,1,0,0,0,32,13Z" style="fill:#776d8a" stroke="white" stroke-linecap="round" /><path d="M17.15,18.5649a1,1,0,1,0,1.4141-1.414l-4.2422-4.2427a1,1,0,1,0-1.4141,1.4141Z" style="fill:#776d8a" stroke="white" stroke-linecap="round" /><path d="M13,32a1,1,0,0,0-1-1H3a1,1,0,0,0,0,2h9A1,1,0,0,0,13,32Z" style="fill:#776d8a" stroke="white" stroke-linecap="round" /><path d="M17.15,45.4351l-4.2422,4.2426a1,1,0,1,0,1.4141,1.4141l4.2422-4.2427a1,1,0,1,0-1.4141-1.414Z" style="fill:#776d8a" stroke="white" stroke-linecap="round" /><path d="M32,51a1,1,0,0,0-1,1v9a1,1,0,0,0,2,0V52A1,1,0,0,0,32,51Z" style="fill:#776d8a" stroke="white" stroke-linecap="round" /><path d="M46.85,45.4351a1,1,0,1,0-1.4141,1.414l4.2422,4.2427a1,1,0,0,0,1.4141-1.4141Z" style="fill:#776d8a" stroke="white" stroke-linecap="round" /><path d="M61,31H52a1,1,0,0,0,0,2h9a1,1,0,0,0,0-2Z" style="fill:#776d8a" stroke="white" stroke-linecap="round" /><path d="M46.1426,18.8579a.9964.9964,0,0,0,.707-.293l4.2422-4.2426a1,1,0,0,0-1.4141-1.4141l-4.2422,4.2427a1,1,0,0,0,.7071,1.707Z" style="fill:#776d8a" stroke="white" stroke-linecap="round" /></g></svg>
